# xmcd
#
# Track frame offsets:
#	150
#	18505
#	32497
#	51525
#	77095
#	92520
#	113530
#	132030
#	150050
#	169795
#	190035
#	219165
#	235185
#
# Disc length: 3451 seconds
#
# Revision: 1
# Processed by: cddbd v1.5.1PL0 Copyright (c) Steve Scherf et al.
# Submitted via: audiograbber 1.83.01
#
DISCID=8f0d790d
DTITLE=John Pearson and Roger Hubbard - Busy Bootin'
DYEAR=1993
DGENRE=Blues
TTITLE0=Busy Bootin'
TTITLE1=As I Went Down The Railroad Track
TTITLE2=Write Me A Few Lines
TTITLE3=Fort Worth And Dallas Blues
TTITLE4=Barrelhouse Woman
TTITLE5=Streamline Train
TTITLE6=Jesus On The Mainline
TTITLE7=Jitterburg Swing
TTITLE8=East St. Louis Fare Thee Well
TTITLE9=Cigarette Blues
TTITLE10=Don't Take Everybodey To Be Your Friend
TTITLE11=Stealin'
TTITLE12=Walkin' Blues
EXTD=
EXTT0=
EXTT1=
EXTT2=
EXTT3=
EXTT4=
EXTT5=
EXTT6=
EXTT7=
EXTT8=
EXTT9=
EXTT10=
EXTT11=
EXTT12=
PLAYORDER=
